<?xml version="1.0" encoding="UTF-8"?><svg id="a" xmlns="http://www.w3.org/2000/svg" viewBox="0 0 259.2 259.2"><rect width="259.2" height="259.2" rx="29.9764" ry="29.9764" style="fill:#fd0;"/><rect x="116.4" y="82.2438" width="25.2" height="94.7123"/><polygon points="69.6 142.1883 69.6 176.9562 44.4 176.9562 44.4 121.2078 44.76 120.8481 99.24 120.8481 99.6 121.2078 99.6 141.8287 99.24 142.1883 69.6 142.1883"/><rect x="152.16" y="82.2438" width="70.56" height="23.738"/><polygon points="200.16 119.1697 200.16 176.9562 175.08 176.9562 174.72 176.5965 174.72 119.5293 175.08 119.1697 200.16 119.1697"/><polygon points="106.08 105.7421 44.4 105.7421 44.4 82.3637 44.76 82.0041 105.72 82.0041 106.08 82.3637 106.08 105.7421"/></svg>